<?xml version="1.0" encoding="iso-8859-1"?>
<!-- Generator: Adobe Illustrator 19.0.0, SVG Export Plug-In . SVG Version: 6.00 Build 0)  -->
<svg version="1.1" id="Layer_1" xmlns="http://www.w3.org/2000/svg" xmlns:xlink="http://www.w3.org/1999/xlink" x="0px" y="0px"
	 viewBox="0 0 511.997 511.997" style="enable-background:new 0 0 511.997 511.997;" xml:space="preserve">
<polygon style="fill:#FF709D;" points="84.971,68.267 392.886,79.52 392.886,0 "/>
<rect x="84.976" y="68.267" style="fill:#FFD3C7;" width="342.05" height="443.73"/>
<path style="fill:#FFFFFF;" d="M247.555,389.272v77.717c0,4.662,3.779,8.44,8.44,8.44c4.661,0,8.44-3.778,8.44-8.44v-77.717H247.555
	z"/>
<path style="fill:#FF3776;" d="M360.083,217.366c0-57.486-46.602-104.088-104.088-104.088S151.907,159.88,151.907,217.366
	c0,54.569,53.188,112.094,97.128,143.468l-21.951,36.878h57.822l-21.951-36.878C306.895,329.46,360.083,271.935,360.083,217.366z"/>
<path style="fill:#FFFFFF;" d="M185.665,225.806c-4.661,0-8.44-3.778-8.44-8.44c0-43.433,35.336-78.769,78.769-78.769
	c4.661,0,8.44,3.778,8.44,8.44s-3.779,8.44-8.44,8.44c-34.126,0-61.89,27.764-61.89,61.89
	C194.105,222.028,190.326,225.806,185.665,225.806z"/>
<g>
</g>
<g>
</g>
<g>
</g>
<g>
</g>
<g>
</g>
<g>
</g>
<g>
</g>
<g>
</g>
<g>
</g>
<g>
</g>
<g>
</g>
<g>
</g>
<g>
</g>
<g>
</g>
<g>
</g>
</svg>
