<?xml version="1.0" encoding="iso-8859-1"?>
<!-- Generator: Adobe Illustrator 19.0.0, SVG Export Plug-In . SVG Version: 6.00 Build 0)  -->
<svg version="1.1" id="Layer_1" xmlns="http://www.w3.org/2000/svg" xmlns:xlink="http://www.w3.org/1999/xlink" x="0px" y="0px"
	 viewBox="0 0 512 512" style="enable-background:new 0 0 512 512;" xml:space="preserve">
<path style="fill:#FE5D26;" d="M300.628,397.744h-89.256C154.73,412.938,109.64,456.355,92.107,512h327.786
	C402.361,456.355,357.27,412.938,300.628,397.744z"/>
<path style="fill:#FFD3C7;" d="M383.247,238.182c-7.727-8.489-20.676-9.93-32.115-4.578c-2.684-20.549-11.89-39.09-25.465-53.434
	l-69.666-22.141l-69.666,22.141c-13.576,14.344-22.782,32.885-25.465,53.434c-11.439-5.353-24.388-3.911-32.115,4.578
	c-9.9,10.876-7.48,29.202,5.406,40.932c8.054,7.331,18.952,10.195,27.913,8.773c9.063,43.56,47.672,76.297,93.928,76.297
	s84.865-32.736,93.927-76.304c8.964,1.429,19.86-1.434,27.914-8.764C390.728,267.384,393.148,249.058,383.247,238.182z"/>
<path style="fill:#FF709D;" d="M256.001,309.543c-11.637,0-22.073-7.365-25.97-18.329c-1.535-4.321,0.722-9.068,5.043-10.604
	c4.32-1.535,9.068,0.722,10.604,5.043c1.549,4.357,5.697,7.284,10.323,7.284c4.625,0,8.774-2.928,10.323-7.285
	c1.537-4.321,6.285-6.577,10.604-5.043c4.321,1.537,6.578,6.284,5.043,10.604C278.073,302.177,267.637,309.543,256.001,309.543z"/>
<g>
	<path style="fill:#991D06;" d="M226.782,258.513c-3.616,0-6.691-2.31-7.83-5.535h-11.543c-4.585,0-8.303-3.717-8.303-8.303
		s3.717-8.303,8.303-8.303h19.373c4.585,0,8.303,3.717,8.303,8.303v5.535C235.085,254.796,231.368,258.513,226.782,258.513z"/>
	<path style="fill:#991D06;" d="M285.219,258.513c-4.585,0-8.303-3.717-8.303-8.303v-5.535c0-4.585,3.717-8.303,8.303-8.303h19.373
		c4.585,0,8.303,3.717,8.303,8.303s-3.717,8.303-8.303,8.303h-11.543C291.909,256.203,288.833,258.513,285.219,258.513z"/>
</g>
<path style="fill:#FFD3C7;" d="M256.001,426.385c19.812,0,36.875-11.741,44.627-28.642c-14.232-3.818-29.192-5.857-44.627-5.857
	s-30.396,2.04-44.628,5.857C219.126,414.644,236.189,426.385,256.001,426.385z"/>
<path style="fill:#AD4A38;" d="M286.763,219.235c-21.541,0-39.065-17.525-39.065-39.064c0-4.585,3.717-8.303,8.303-8.303
	c4.585,0,8.303,3.717,8.303,8.303c0,12.383,10.075,22.459,22.46,22.459c4.585,0,8.303,3.717,8.303,8.303
	C295.066,215.518,291.349,219.235,286.763,219.235z"/>
<polygon style="fill:#57BAB7;" points="262.9,50.159 256.001,39.089 250.048,50.159 186.334,180.171 325.667,180.171 "/>
<path style="fill:#F63E31;" d="M262.9,50.159l25.445-25.445c2.135-3.243,2.135-8.5-1.107-11.741c-3.241-3.243-8.499-3.243-11.741,0
	l-11.273,11.273V8.303c0-4.585-3.717-8.303-8.303-8.303s-8.303,3.717-8.303,8.303v15.943l-11.273-11.273
	c-3.243-3.243-8.5-3.243-11.741,0c-3.243,3.243-3.243,8.5,0,11.741l25.445,25.445C250.049,50.159,262.9,50.159,262.9,50.159z"/>
<g>
</g>
<g>
</g>
<g>
</g>
<g>
</g>
<g>
</g>
<g>
</g>
<g>
</g>
<g>
</g>
<g>
</g>
<g>
</g>
<g>
</g>
<g>
</g>
<g>
</g>
<g>
</g>
<g>
</g>
</svg>
