<?xml version="1.0" encoding="iso-8859-1"?>
<!-- Generator: Adobe Illustrator 19.0.0, SVG Export Plug-In . SVG Version: 6.00 Build 0)  -->
<svg version="1.1" id="Layer_1" xmlns="http://www.w3.org/2000/svg" xmlns:xlink="http://www.w3.org/1999/xlink" x="0px" y="0px"
	 viewBox="0 0 512 512" style="enable-background:new 0 0 512 512;" xml:space="preserve">
<path style="fill:#FFD102;" d="M212.226,59.815c0-23.573,18.219-48.424,44.281-59.815c26.062,11.39,44.281,36.242,44.281,59.815
	c0,24.455-19.826,44.281-44.281,44.281C232.052,104.096,212.226,84.27,212.226,59.815L212.226,59.815z"/>
<path style="fill:#459492;" d="M256.507,84.476c-4.585,0-8.303,3.717-8.303,8.303v44.281h16.605V92.779
	C264.81,88.194,261.092,84.476,256.507,84.476z"/>
<path style="fill:#FFD102;" d="M376.46,59.815c0-23.573,18.219-48.424,44.281-59.815c26.062,11.39,44.281,36.242,44.281,59.815
	c0,24.455-19.826,44.281-44.281,44.281C396.286,104.096,376.46,84.27,376.46,59.815L376.46,59.815z"/>
<path style="fill:#459492;" d="M420.741,84.476c-4.585,0-8.303,3.717-8.303,8.303v44.281h16.605V92.779
	C429.044,88.194,425.326,84.476,420.741,84.476z"/>
<path style="fill:#FFD102;" d="M46.978,59.815c0-23.573,18.219-48.424,44.281-59.815c26.062,11.39,44.281,36.242,44.281,59.815
	c0,24.455-19.826,44.281-44.281,44.281S46.978,84.27,46.978,59.815L46.978,59.815z"/>
<path style="fill:#459492;" d="M91.259,84.476c-4.585,0-8.303,3.717-8.303,8.303v44.281h16.605V92.779
	C99.562,88.194,95.844,84.476,91.259,84.476z"/>
<polygon style="fill:#FFD3C7;" points="222.788,333.769 289.21,267.347 289.21,202.204 222.788,268.626 "/>
<polygon style="fill:#FF709D;" points="222.788,344.839 289.21,344.839 289.21,267.347 222.788,333.769 "/>
<path style="fill:#FFD3C7;" d="M278.139,125.99h-44.281c-6.089,0-11.07,4.982-11.07,11.07v66.422l66.422-66.422
	C289.21,130.971,284.228,125.99,278.139,125.99z"/>
<polygon style="fill:#FF709D;" points="222.788,203.482 222.788,268.626 289.21,202.204 289.21,137.06 "/>
<g>
	<path style="fill:#E60048;" d="M247.696,424.545v79.152c0,4.585,3.717,8.303,8.303,8.303c4.585,0,8.303-3.717,8.303-8.303v-79.152
		H247.696z"/>
	<rect x="211.719" y="344.839" style="fill:#E60048;" width="88.562" height="56.458"/>
</g>
<path style="fill:#FF3776;" d="M168.891,390.227c19.217,27.441,51.064,45.388,87.108,45.388s67.891-17.947,87.108-45.388H168.891z"
	/>
<g>
	<path style="fill:#235C6D;" d="M412.438,424.545v79.152c0,4.585,3.717,8.303,8.303,8.303s8.303-3.717,8.303-8.303v-79.152H412.438z
		"/>
	<rect x="376.456" y="344.839" style="fill:#235C6D;" width="88.562" height="56.458"/>
</g>
<path style="fill:#459492;" d="M333.634,390.227c19.217,27.441,51.064,45.388,87.108,45.388s67.891-17.947,87.108-45.388H333.634z"
	/>
<polygon style="fill:#9ED9E6;" points="387.53,333.769 453.952,267.347 453.952,202.204 387.53,268.626 "/>
<polygon style="fill:#57BAB7;" points="387.53,344.839 453.952,344.839 453.952,267.347 387.53,333.769 "/>
<path style="fill:#9ED9E6;" d="M442.882,125.99h-44.281c-6.089,0-11.07,4.982-11.07,11.07v66.422l66.422-66.422
	C453.952,130.971,448.97,125.99,442.882,125.99z"/>
<polygon style="fill:#57BAB7;" points="387.53,203.482 387.53,268.626 453.952,202.204 453.952,137.06 "/>
<g>
	<path style="fill:#235C6D;" d="M82.956,424.545v79.152c0,4.585,3.717,8.303,8.303,8.303s8.303-3.717,8.303-8.303v-79.152H82.956z"
		/>
	<rect x="46.982" y="344.839" style="fill:#235C6D;" width="88.562" height="56.458"/>
</g>
<path style="fill:#459492;" d="M4.151,390.227c19.217,27.441,51.064,45.388,87.108,45.388s67.891-17.947,87.108-45.388H4.151z"/>
<polygon style="fill:#9ED9E6;" points="58.048,333.769 124.47,267.347 124.47,202.204 58.048,268.626 "/>
<polygon style="fill:#57BAB7;" points="58.048,344.839 124.47,344.839 124.47,267.347 58.048,333.769 "/>
<path style="fill:#9ED9E6;" d="M113.399,125.99H69.118c-6.089,0-11.07,4.982-11.07,11.07v66.422l66.422-66.422
	C124.47,130.971,119.488,125.99,113.399,125.99z"/>
<polygon style="fill:#57BAB7;" points="58.048,203.482 58.048,268.626 124.47,202.204 124.47,137.06 "/>
<g>
</g>
<g>
</g>
<g>
</g>
<g>
</g>
<g>
</g>
<g>
</g>
<g>
</g>
<g>
</g>
<g>
</g>
<g>
</g>
<g>
</g>
<g>
</g>
<g>
</g>
<g>
</g>
<g>
</g>
</svg>
