<?xml version="1.0" encoding="iso-8859-1"?>
<!-- Generator: Adobe Illustrator 19.0.0, SVG Export Plug-In . SVG Version: 6.00 Build 0)  -->
<svg version="1.1" id="Layer_1" xmlns="http://www.w3.org/2000/svg" xmlns:xlink="http://www.w3.org/1999/xlink" x="0px" y="0px"
	 viewBox="0 0 512 512" style="enable-background:new 0 0 512 512;" xml:space="preserve">
<polygon style="fill:#FFEEA4;" points="104.088,67.516 104.088,410.725 256,421.978 407.912,410.725 407.912,67.516 256,56.264 "/>
<g>
	<path style="fill:#57BAB7;" d="M104.088,465.966c0,25.319,20.715,46.034,46.034,46.034h211.756
		c25.319,0,46.034-20.715,46.034-46.034v-55.241H104.088V465.966z"/>
	<path style="fill:#57BAB7;" d="M407.912,46.034C407.912,20.715,387.197,0,361.878,0H150.122c-25.319,0-46.034,20.715-46.034,46.034
		v21.483h303.824V46.034z"/>
</g>
<path style="fill:#FFD102;" d="M230.155,178.66c0-14.976,11.576-30.764,28.132-38.001c16.557,7.237,28.132,23.024,28.132,38.001
	c0,15.537-12.595,28.132-28.132,28.132C242.749,206.792,230.155,194.197,230.155,178.66L230.155,178.66z"/>
<path style="fill:#459492;" d="M258.285,188.484c-4.662,0-8.44,3.778-8.44,8.44v45.011h16.879v-45.011
	C266.725,192.261,262.947,188.484,258.285,188.484z"/>
<path style="fill:#AD4A38;" d="M256.001,258.813c-71.411,0-104.089,45.011-104.089,45.011v56.264h208.176v-56.264
	C360.088,303.824,327.411,258.813,256.001,258.813z"/>
<path style="fill:#991D06;" d="M331.621,230.681H180.379c-15.657,0-28.467,12.82-28.467,28.49v44.653
	c26.023,0,26.023-21.943,52.047-21.943c26.021,0,26.021,21.943,52.042,21.943c26.02,0,26.02-21.943,52.039-21.943
	c26.023,0,26.023,21.943,52.047,21.943v-44.653C360.088,243.502,347.278,230.681,331.621,230.681z"/>
<g>
	<circle style="fill:#459492;" cx="256" cy="461.363" r="16.879"/>
	<path style="fill:#459492;" d="M291.603,42.198h-71.204c-4.662,0-8.44-3.778-8.44-8.44s3.778-8.44,8.44-8.44h71.204
		c4.662,0,8.44,3.778,8.44,8.44S296.263,42.198,291.603,42.198z"/>
</g>
<g>
</g>
<g>
</g>
<g>
</g>
<g>
</g>
<g>
</g>
<g>
</g>
<g>
</g>
<g>
</g>
<g>
</g>
<g>
</g>
<g>
</g>
<g>
</g>
<g>
</g>
<g>
</g>
<g>
</g>
</svg>
