<?xml version="1.0" encoding="iso-8859-1"?>
<!-- Generator: Adobe Illustrator 19.0.0, SVG Export Plug-In . SVG Version: 6.00 Build 0)  -->
<svg version="1.1" id="Layer_1" xmlns="http://www.w3.org/2000/svg" xmlns:xlink="http://www.w3.org/1999/xlink" x="0px" y="0px"
	 viewBox="0 0 512 512" style="enable-background:new 0 0 512 512;" xml:space="preserve">
<g>
	<path style="fill:#FFE368;" d="M336.262,495.395h-38.746V366.241H280.91v129.154h-38.746c-4.585,0-8.303,3.717-8.303,8.303
		c0,4.585,3.717,8.303,8.303,8.303h94.097c4.585,0,8.303-3.717,8.303-8.303C344.564,499.112,340.848,495.395,336.262,495.395z"/>
	<path style="fill:#FFE368;" d="M474.64,495.395h-38.746V355.171h-16.605v140.224h-38.746c-4.585,0-8.303,3.717-8.303,8.303
		c0,4.585,3.717,8.303,8.303,8.303h94.097c4.585,0,8.303-3.717,8.303-8.303C482.943,499.112,479.226,495.395,474.64,495.395z"/>
</g>
<path style="fill:#FFAA0E;" d="M336.257,208.686V341.33c0,25.982-21.056,47.049-47.049,47.049
	c-25.982,0-47.049-21.067-47.049-47.049V208.686l47.049-22.141L336.257,208.686z"/>
<rect x="242.162" y="156.755" style="fill:#FFE368;" width="94.097" height="51.931"/>
<path style="fill:#FFAA0E;" d="M474.636,208.686V341.33c0,25.982-21.056,47.049-47.049,47.049
	c-25.982,0-47.049-21.067-47.049-47.049V208.686l47.049-22.141L474.636,208.686z"/>
<rect x="380.541" y="156.755" style="fill:#FFE368;" width="94.097" height="51.931"/>
<g>
	<path style="fill:#459492;" d="M197.879,462.815v12.764c0,15.532-12.587,28.118-28.118,28.118H57.176
		c-15.532,0-28.118-12.587-28.118-28.118v-12.764l84.411-33.211L197.879,462.815z"/>
	<path style="fill:#459492;" d="M162.698,192.468H64.239c-15.166,40.019-35.181,66.654-35.181,148.663l84.411,44.281l84.411-44.281
		C197.879,259.122,177.864,232.487,162.698,192.468z"/>
</g>
<path style="fill:#9AD6D4;" d="M197.879,341.13v121.684H29.057V341.13h46.384c0-21,17.026-38.026,38.026-38.026
	s38.026,17.026,38.026,38.026H197.879z"/>
<path style="fill:#FFD102;" d="M145.959,88.507c0,50.093,7.472,79.518,16.738,103.961c-14.989,6.875-31.661,10.716-49.229,10.716
	s-34.24-3.841-49.229-10.716c9.266-24.443,16.738-53.868,16.738-103.961l32.491-33.211L145.959,88.507z"/>
<path style="fill:#FFE368;" d="M152.601,33.211v48.654c0,3.653-2.989,6.642-6.642,6.642H80.977c-3.653,0-6.642-2.989-6.642-6.642
	V33.211C74.335,14.945,89.28,0,107.545,0h11.845C137.657,0,152.601,14.945,152.601,33.211z"/>
<g>
</g>
<g>
</g>
<g>
</g>
<g>
</g>
<g>
</g>
<g>
</g>
<g>
</g>
<g>
</g>
<g>
</g>
<g>
</g>
<g>
</g>
<g>
</g>
<g>
</g>
<g>
</g>
<g>
</g>
</svg>
