<?xml version="1.0" encoding="iso-8859-1"?>
<!-- Generator: Adobe Illustrator 19.0.0, SVG Export Plug-In . SVG Version: 6.00 Build 0)  -->
<svg version="1.1" id="Layer_1" xmlns="http://www.w3.org/2000/svg" xmlns:xlink="http://www.w3.org/1999/xlink" x="0px" y="0px"
	 viewBox="0 0 512 512" style="enable-background:new 0 0 512 512;" xml:space="preserve">
<path style="fill:#FFEEA4;" d="M86.031,93.372l-51.781,9.792c-16.23,3.116-29.508,19.187-29.508,35.713v343.077
	C4.742,498.479,18.263,512,34.789,512H256l22.505-209.315L256,93.371H86.031V93.372z"/>
<path style="fill:#FFD102;" d="M477.75,103.164l-51.781-9.792H256V512h221.211c16.526,0,30.047-13.521,30.047-30.047V138.876
	C507.258,122.35,493.979,106.28,477.75,103.164z"/>
<polygon style="fill:#FFE368;" points="86.031,0 86.031,93.372 197.531,181.677 314.47,181.677 425.969,93.372 425.969,0 "/>
<g>
	<circle style="fill:#FF709D;" cx="303.824" cy="290.951" r="14.066"/>
	<circle style="fill:#FF709D;" cx="303.824" cy="464.176" r="14.066"/>
	<circle style="fill:#FF709D;" cx="303.824" cy="377.563" r="14.066"/>
</g>
<polygon style="fill:#FFAA0E;" points="119.789,33.758 119.789,55.286 239.121,89.456 239.121,164.351 272.879,164.351 
	272.879,89.456 392.211,55.286 392.211,33.758 "/>
<g>
	<path style="fill:#FF3776;" d="M140.732,117.122c0,0-15.864,23.421-15.864,58.483s15.864,58.483,15.864,58.483
		c36.279,6.974,81.509-24.723,81.509-24.723v-67.519C222.242,141.845,177.011,110.148,140.732,117.122z"/>
	<path style="fill:#FF3776;" d="M371.268,117.122c-36.279-6.974-81.509,24.723-81.509,24.723v67.519c0,0,45.23,31.698,81.509,24.723
		c0,0,15.864-23.421,15.864-58.483S371.268,117.122,371.268,117.122z"/>
</g>
<path style="fill:#E60048;" d="M323.517,184.044H188.484c-4.662,0-8.44-3.779-8.44-8.44s3.778-8.44,8.44-8.44h135.033
	c4.662,0,8.44,3.779,8.44,8.44S328.177,184.044,323.517,184.044z"/>
<rect x="222.242" y="141.841" style="fill:#FF709D;" width="67.516" height="67.516"/>
<g>
</g>
<g>
</g>
<g>
</g>
<g>
</g>
<g>
</g>
<g>
</g>
<g>
</g>
<g>
</g>
<g>
</g>
<g>
</g>
<g>
</g>
<g>
</g>
<g>
</g>
<g>
</g>
<g>
</g>
</svg>
