<?xml version="1.0" encoding="iso-8859-1"?>
<!-- Generator: Adobe Illustrator 19.0.0, SVG Export Plug-In . SVG Version: 6.00 Build 0)  -->
<svg version="1.1" id="Layer_1" xmlns="http://www.w3.org/2000/svg" xmlns:xlink="http://www.w3.org/1999/xlink" x="0px" y="0px"
	 viewBox="0 0 512 512" style="enable-background:new 0 0 512 512;" xml:space="preserve">
<path style="fill:#FF3776;" d="M488.87,342.948l-41.549-8.45l-3.177,15.619l41.549,8.45c0.537,0.109,1.071,0.16,1.597,0.16
	c3.711,0,7.033-2.604,7.802-6.382C495.968,348.033,493.183,343.825,488.87,342.948z"/>
<path style="fill:#E60048;" d="M499.271,306.29l-42.164-5.145l-1.93,15.821l42.164,5.145c0.328,0.04,0.652,0.061,0.975,0.061
	c3.97,0,7.408-2.965,7.901-7.006C506.75,310.797,503.64,306.823,499.271,306.29z"/>
<path style="fill:#FF3776;" d="M504.353,267.67l-42.491-1.728l-0.647,15.926l42.491,1.728c0.111,0.004,0.22,0.006,0.329,0.006
	c4.253,0,7.784-3.358,7.958-7.646C512.172,271.56,508.752,267.849,504.353,267.67z"/>
<path style="fill:#E60048;" d="M461.218,230.133l0.319,15.933c0.109,0,0.219-0.002,0.329-0.006l42.489-1.728
	c4.398-0.18,7.818-3.889,7.639-8.287c-0.179-4.398-3.881-7.817-8.287-7.639L461.218,230.133z"/>
<path style="fill:#FF3776;" d="M457.106,210.857l42.168-5.145c4.368-0.532,7.479-4.507,6.945-8.876
	c-0.533-4.369-4.51-7.489-8.876-6.945l-42.168,5.145L457.106,210.857z"/>
<path style="fill:#E60048;" d="M488.873,169.053c4.313-0.877,7.098-5.085,6.221-9.399c-0.877-4.313-5.076-7.096-9.399-6.221
	l-41.546,8.45l3.177,15.619L488.873,169.053z"/>
<path style="fill:#FFE368;" d="M452.425,160.366h-0.814l-30.158,6.133l-43.79,170.096l73.948,15.041l0.816-0.005
	C479.659,290.953,479.658,221.042,452.425,160.366z"/>
<polygon style="fill:#E60048;" points="0,234.749 0,277.253 106.261,287.857 116.887,256.001 106.261,224.144 "/>
<g>
	<polygon style="fill:#FF3776;" points="106.481,224.123 106.261,224.144 106.261,287.857 106.481,287.879 138.14,287.879 
		148.766,256.001 138.14,224.123 	"/>
	<path style="fill:#FF3776;" d="M421.453,166.499l-76.098,15.478l-35.829,140.76l68.137,13.859
		C413.705,287.897,429.521,226.647,421.453,166.499z"/>
</g>
<path style="fill:#FFE368;" d="M345.355,181.977l-77.128,15.687l-28.081,110.961l69.379,14.112
	C336.03,280.911,348.642,231.467,345.355,181.977z"/>
<path style="fill:#FF3776;" d="M189.465,213.683l-20.359,80.494l71.039,14.448c18.359-34.035,28.038-72.238,28.081-110.962
	L189.465,213.683z"/>
<path style="fill:#FFE368;" d="M138.14,224.123v63.757l30.968,6.298c11.507-25.379,18.414-52.667,20.359-80.494L138.14,224.123z"/>
<g>
</g>
<g>
</g>
<g>
</g>
<g>
</g>
<g>
</g>
<g>
</g>
<g>
</g>
<g>
</g>
<g>
</g>
<g>
</g>
<g>
</g>
<g>
</g>
<g>
</g>
<g>
</g>
<g>
</g>
</svg>
