<?xml version="1.0" encoding="iso-8859-1"?>
<!-- Generator: Adobe Illustrator 19.0.0, SVG Export Plug-In . SVG Version: 6.00 Build 0)  -->
<svg version="1.1" id="Layer_1" xmlns="http://www.w3.org/2000/svg" xmlns:xlink="http://www.w3.org/1999/xlink" x="0px" y="0px"
	 viewBox="0 0 512 512" style="enable-background:new 0 0 512 512;" xml:space="preserve">
<circle style="fill:#FFE368;" cx="258.43" cy="80.142" r="80.142"/>
<rect x="247.56" y="394.206" style="fill:#9AD6D4;" width="16.879" height="97.021"/>
<path style="fill:#57BAB7;" d="M153.38,203.873l30.497,140.677c7.201,33.214,36.753,58.099,72.122,58.099
	s64.922-24.887,72.122-58.099l30.497-140.677H153.38z"/>
<path style="fill:#FF709D;" d="M336.143,60.452c-44.263,0-80.143,35.882-80.143,80.143l80.143,22.505l80.143-22.505
	C416.287,96.334,380.405,60.452,336.143,60.452z"/>
<path style="fill:#AD4A38;" d="M175.856,60.452c-44.263,0-80.143,35.882-80.143,80.143l80.143,22.505l80.143-22.505
	C255.999,96.334,220.118,60.452,175.856,60.452z"/>
<path style="fill:#57BAB7;" d="M255.999,482.792c-27.423,0-52.123,11.243-69.433,29.208h138.865
	C308.122,494.035,283.422,482.792,255.999,482.792z"/>
<path style="fill:#9AD6D4;" d="M81.289,140.595c0,41.163,33.369,74.53,74.53,74.53h25.907l26.895,124.059
	c4.791,22.104,24.718,38.146,47.379,38.146c4.661,0,8.44-3.778,8.44-8.44s-3.779-8.44-8.44-8.44
	c-14.774,0-27.762-10.448-30.883-24.843l-26.12-120.484H356.18c41.161,0,74.53-33.369,74.53-74.53H81.289V140.595z"/>
<g>
</g>
<g>
</g>
<g>
</g>
<g>
</g>
<g>
</g>
<g>
</g>
<g>
</g>
<g>
</g>
<g>
</g>
<g>
</g>
<g>
</g>
<g>
</g>
<g>
</g>
<g>
</g>
<g>
</g>
</svg>
