<?xml version="1.0" encoding="iso-8859-1"?>
<!-- Generator: Adobe Illustrator 19.0.0, SVG Export Plug-In . SVG Version: 6.00 Build 0)  -->
<svg version="1.1" id="Layer_1" xmlns="http://www.w3.org/2000/svg" xmlns:xlink="http://www.w3.org/1999/xlink" x="0px" y="0px"
	 viewBox="0 0 512 512" style="enable-background:new 0 0 512 512;" xml:space="preserve">
<g>
	<path style="fill:#FE841A;" d="M180.264,0.544l4.013,32.268l17.154,58.699l-43.332-6.552l-6.787-51.635
		C149.06,15.296,162.091,0.544,180.264,0.544z"/>
	<path style="fill:#FE841A;" d="M130.9,137.362v64.141h-70.15c-12.119,0-22.022-9.914-22.022-22.022v-20.097
		c0-12.108,9.902-22.022,22.022-22.022H130.9z"/>
</g>
<path style="fill:#FFAA0E;" d="M223.409,79.714L213.496,0c-18.173,0-31.204,14.752-28.953,32.779l5.84,46.935h-24.587
	c-34.163,0-62.498,24.97-67.764,57.648h-0.889v115.296l73.897,22.506l73.897-22.506L223.409,79.714z"/>
<path style="fill:#991D06;" d="M138.922,152.414c-4.661,0-8.44-3.779-8.44-8.44v-6.611c0-4.661,3.779-8.44,8.44-8.44h23.138
	c4.661,0,8.44,3.779,8.44,8.44s-3.779,8.44-8.44,8.44h-14.898C146.328,149.585,142.955,152.414,138.922,152.414z"/>
<circle style="fill:#F63E31;" cx="169.68" cy="186.908" r="16.879"/>
<path style="fill:#FE841A;" d="M435.174,271.069h-37.085l29.701,157.097h45.481V309.165
	C473.27,288.125,456.214,271.069,435.174,271.069z"/>
<g>
	<path style="fill:#FFAA0E;" d="M439.023,401.498v77.475c0,18.162-14.865,33.027-33.027,33.027h-13.076
		c-18.162,0-33.027-14.865-33.027-33.027v-99.981L439.023,401.498z"/>
	<path style="fill:#FFAA0E;" d="M176.283,378.993v99.981c0,18.162-14.865,33.027-33.038,33.027H130.18
		c-18.173,0-33.038-14.865-33.038-33.027v-77.475L176.283,378.993z"/>
</g>
<path style="fill:#E60048;" d="M439.023,315.55v36.335L267.379,374.39L97.142,351.885v-49.613l170.237-11.253l170.237,11.253
	C438.539,306.547,439.023,310.992,439.023,315.55z"/>
<g>
	<path style="fill:#FE5D26;" d="M376.143,252.658H97.142v49.613h340.474C431.518,273.914,406.311,252.658,376.143,252.658z"/>
	<rect x="97.144" y="351.885" style="fill:#FE5D26;" width="341.881" height="49.613"/>
</g>
<g>
</g>
<g>
</g>
<g>
</g>
<g>
</g>
<g>
</g>
<g>
</g>
<g>
</g>
<g>
</g>
<g>
</g>
<g>
</g>
<g>
</g>
<g>
</g>
<g>
</g>
<g>
</g>
<g>
</g>
</svg>
