<?xml version="1.0" encoding="iso-8859-1"?>
<!-- Generator: Adobe Illustrator 19.0.0, SVG Export Plug-In . SVG Version: 6.00 Build 0)  -->
<svg version="1.1" id="Layer_1" xmlns="http://www.w3.org/2000/svg" xmlns:xlink="http://www.w3.org/1999/xlink" x="0px" y="0px"
	 viewBox="0 0 512 512" style="enable-background:new 0 0 512 512;" xml:space="preserve">
<rect x="45.011" style="fill:#FFD3C7;" width="421.978" height="512"/>
<polygon style="fill:#FFFFFF;" points="78.769,33.758 78.769,388.22 118.526,388.22 256,365.714 393.474,388.22 433.231,388.22 
	433.231,33.758 "/>
<path style="fill:#FE5D26;" d="M118.526,388.22h274.947c-22.983-29.301-55.115-51.083-92.111-61.008h-90.725
	C173.641,337.137,141.509,358.919,118.526,388.22z"/>
<path style="fill:#FFD3C7;" d="M385.342,165.023c-7.854-8.629-21.017-10.094-32.644-4.653
	c-2.728-20.887-12.085-39.733-25.885-54.314L256,83.551l-70.814,22.505c-13.799,14.58-23.157,33.426-25.885,54.314
	c-11.627-5.441-24.79-3.976-32.644,4.653c-10.063,11.055-7.603,29.682,5.495,41.606c8.186,7.452,19.264,10.363,28.373,8.918
	c9.213,44.277,48.457,77.553,95.475,77.553s86.262-33.275,95.474-77.561c9.111,1.453,20.187-1.457,28.374-8.909
	C392.946,194.705,395.406,176.077,385.342,165.023z"/>
<path style="fill:#FF709D;" d="M256,237.559c-11.829,0-22.437-7.486-26.398-18.631c-1.561-4.392,0.734-9.217,5.126-10.779
	c4.391-1.561,9.217,0.734,10.779,5.126c1.574,4.429,5.791,7.404,10.493,7.404c4.701,0,8.919-2.976,10.493-7.405
	c1.562-4.392,6.388-6.685,10.779-5.126c4.392,1.562,6.686,6.387,5.126,10.779C278.436,230.071,267.828,237.559,256,237.559z"/>
<g>
	<path style="fill:#991D06;" d="M226.301,185.688c-3.675,0-6.801-2.348-7.959-5.626h-11.733c-4.661,0-8.44-3.779-8.44-8.44
		c0-4.661,3.779-8.44,8.44-8.44h19.692c4.661,0,8.44,3.779,8.44,8.44v5.626C234.74,181.91,230.963,185.688,226.301,185.688z"/>
	<path style="fill:#991D06;" d="M285.699,185.688c-4.661,0-8.44-3.779-8.44-8.44v-5.626c0-4.661,3.779-8.44,8.44-8.44h19.692
		c4.661,0,8.44,3.779,8.44,8.44c0,4.661-3.779,8.44-8.44,8.44h-11.733C292.501,183.34,289.373,185.688,285.699,185.688z"/>
</g>
<path style="fill:#FFD3C7;" d="M256,356.325c20.138,0,37.482-11.935,45.362-29.113c-14.467-3.881-29.672-5.954-45.362-5.954
	s-30.897,2.074-45.363,5.954C218.518,344.39,235.862,356.325,256,356.325z"/>
<path style="fill:#AD4A38;" d="M287.269,145.764c-21.896,0-39.709-17.813-39.709-39.708c0-4.661,3.779-8.44,8.44-8.44
	c4.661,0,8.44,3.779,8.44,8.44c0,12.587,10.241,22.828,22.83,22.828c4.661,0,8.44,3.779,8.44,8.44
	C295.709,141.985,291.93,145.764,287.269,145.764z"/>
<polygon style="fill:#57BAB7;" points="185.186,106.056 326.814,106.056 291.91,33.758 220.617,33.758 "/>
<g>
</g>
<g>
</g>
<g>
</g>
<g>
</g>
<g>
</g>
<g>
</g>
<g>
</g>
<g>
</g>
<g>
</g>
<g>
</g>
<g>
</g>
<g>
</g>
<g>
</g>
<g>
</g>
<g>
</g>
</svg>
