<?xml version="1.0" encoding="iso-8859-1"?>
<!-- Generator: Adobe Illustrator 19.0.0, SVG Export Plug-In . SVG Version: 6.00 Build 0)  -->
<svg version="1.1" id="Layer_1" xmlns="http://www.w3.org/2000/svg" xmlns:xlink="http://www.w3.org/1999/xlink" x="0px" y="0px"
	 viewBox="0 0 512.001 512.001" style="enable-background:new 0 0 512.001 512.001;" xml:space="preserve">
<path style="fill:#F63E31;" d="M48.768,159.806l22.507,68.492L48.77,296.789c-22.917-14.189-38.184-39.558-38.184-68.492
	C10.586,199.363,25.852,173.994,48.768,159.806z"/>
<g>
	<path style="fill:#FF709D;" d="M48.768,296.789l22.507,68.492L48.77,433.772c-22.917-14.189-38.184-39.558-38.184-68.492
		C10.586,336.346,25.852,310.978,48.768,296.789z"/>
	<path style="fill:#FF709D;" d="M463.233,159.806l-22.507,68.492l22.504,68.492c22.917-14.189,38.184-39.558,38.184-68.492
		C501.415,199.363,486.15,173.994,463.233,159.806z"/>
</g>
<path style="fill:#F63E31;" d="M463.233,296.789l-22.507,68.492l22.504,68.492c22.917-14.189,38.184-39.558,38.184-68.492
	C501.415,336.346,486.15,310.978,463.233,296.789z"/>
<path style="fill:#E4B780;" d="M127.004,512c-43.135,0-78.229-35.093-78.229-78.228V159.806
	c-19.845-17.013-31.552-41.904-31.552-68.898C17.223,40.781,58.004,0,108.13,0h295.75c50.126,0,90.906,40.781,90.906,90.908
	c0,26.993-11.706,51.884-31.552,68.898v273.967c0,43.135-35.093,78.228-78.228,78.228H127.004V512z"/>
<path style="fill:#FFEEA4;" d="M403.882,33.758H108.13c-31.512,0-57.149,25.637-57.149,57.149c0,16.729,7.204,32.5,19.765,43.269
	l11.786,10.104v289.492c0,24.521,19.95,44.47,44.471,44.47h258.005c24.521,0,44.47-19.949,44.47-44.47V144.28l11.786-10.104
	c12.561-10.769,19.765-26.54,19.765-43.269C461.03,59.395,435.393,33.758,403.882,33.758z"/>
<g>
	<circle style="fill:#E4B780;" cx="312.051" cy="423.824" r="8.44"/>
	<circle style="fill:#E4B780;" cx="381.919" cy="315.403" r="8.44"/>
	<circle style="fill:#E4B780;" cx="162.974" cy="81.324" r="8.44"/>
</g>
<g>
	<path style="fill:#C8815C;" d="M354.813,154.51H224.715c-4.661,0-8.44-3.779-8.44-8.44s3.779-8.44,8.44-8.44h130.098
		c4.661,0,8.44,3.779,8.44,8.44S359.474,154.51,354.813,154.51z"/>
	<path style="fill:#C8815C;" d="M190.956,154.51h-33.758c-4.661,0-8.44-3.779-8.44-8.44s3.779-8.44,8.44-8.44h33.758
		c4.661,0,8.44,3.779,8.44,8.44S195.617,154.51,190.956,154.51z"/>
	<path style="fill:#C8815C;" d="M354.813,264.44h-33.758c-4.661,0-8.44-3.779-8.44-8.44c0-4.661,3.779-8.44,8.44-8.44h33.758
		c4.661,0,8.44,3.779,8.44,8.44C363.253,260.661,359.474,264.44,354.813,264.44z"/>
	<path style="fill:#C8815C;" d="M287.297,264.44H157.198c-4.661,0-8.44-3.779-8.44-8.44c0-4.661,3.779-8.44,8.44-8.44h130.098
		c4.661,0,8.44,3.779,8.44,8.44C295.735,260.661,291.958,264.44,287.297,264.44z"/>
	<path style="fill:#C8815C;" d="M354.813,374.369H157.198c-4.661,0-8.44-3.779-8.44-8.44s3.779-8.44,8.44-8.44h197.614
		c4.661,0,8.44,3.779,8.44,8.44S359.474,374.369,354.813,374.369z"/>
</g>
<g>
</g>
<g>
</g>
<g>
</g>
<g>
</g>
<g>
</g>
<g>
</g>
<g>
</g>
<g>
</g>
<g>
</g>
<g>
</g>
<g>
</g>
<g>
</g>
<g>
</g>
<g>
</g>
<g>
</g>
</svg>
