<?xml version="1.0" encoding="iso-8859-1"?>
<!-- Generator: Adobe Illustrator 19.0.0, SVG Export Plug-In . SVG Version: 6.00 Build 0)  -->
<svg version="1.1" id="Layer_1" xmlns="http://www.w3.org/2000/svg" xmlns:xlink="http://www.w3.org/1999/xlink" x="0px" y="0px"
	 viewBox="0 0 512.001 512.001" style="enable-background:new 0 0 512.001 512.001;" xml:space="preserve">
<path style="fill:#57BAB7;" d="M135.163,365.284L2.394,498.053c-3.191,3.191-3.191,8.363,0,11.555c3.191,3.191,8.364,3.191,11.555,0
	l132.769-132.769L135.163,365.284z"/>
<path style="fill:#FE5D26;" d="M314.256,197.744c-6.382-6.381-16.727-6.381-23.109,0L133.237,355.655
	c-6.381,6.381-6.381,16.727,0,23.109c6.381,6.381,16.727,6.381,23.109,0l157.911-157.911
	C320.638,214.472,320.638,204.126,314.256,197.744z"/>
<path style="fill:#FFD102;" d="M404.48,107.52c-3.191-3.191-8.364-3.191-11.555,0l-61.339,61.339c-3.191,3.191-3.191,8.363,0,11.555
	c3.191,3.191,8.364,3.191,11.555,0l61.339-61.339C407.671,115.884,407.672,110.711,404.48,107.52z"/>
<path style="fill:#FFAA0E;" d="M450.699,84.411l-5.777-5.777l5.777-5.777c3.191-3.191,3.191-8.363,0-11.555
	c-3.191-3.191-8.364-3.191-11.555,0l-5.777,5.777l-5.777-5.777c-3.191-3.191-8.364-3.191-11.555,0
	c-3.191,3.191-3.191,8.364,0,11.555l5.777,5.777l-5.777,5.777c-3.191,3.191-3.191,8.363,0,11.555c3.191,3.191,8.364,3.191,11.555,0
	l5.777-5.777l5.777,5.777c3.191,3.191,8.364,3.191,11.555,0C453.889,92.775,453.889,87.602,450.699,84.411z"/>
<path style="fill:#FFD102;" d="M310.871,73.532c0-4.512-3.658-8.17-8.17-8.17c-4.512,0-8.17,3.658-8.17,8.17v86.746
	c0,2.256,0.914,4.299,2.393,5.777c1.478,1.478,3.521,2.393,5.777,2.393c4.512,0,8.17-3.658,8.17-8.17V73.532z"/>
<path style="fill:#FFAA0E;" d="M278.192,24.511c0,2.256,0.914,4.299,2.393,5.777c1.479,1.478,3.521,2.393,5.777,2.393h8.17v8.17
	c0,2.256,0.914,4.299,2.393,5.777c1.477,1.478,3.52,2.393,5.776,2.393c4.512,0,8.17-3.657,8.17-8.17v-8.17h8.17
	c4.512,0,8.17-3.658,8.17-8.17s-3.658-8.17-8.17-8.17h-8.17V8.17c0.001-4.513-3.658-8.17-8.17-8.17c-4.512,0-8.17,3.658-8.17,8.17
	v8.17h-8.17C281.849,16.34,278.191,19.999,278.192,24.511z"/>
<path style="fill:#FFD102;" d="M200.922,107.52c-3.191,3.191-3.191,8.364,0,11.555l61.339,61.339c3.191,3.191,8.364,3.191,11.555,0
	c3.191-3.191,3.191-8.364,0-11.555l-61.339-61.339C209.286,104.329,204.113,104.329,200.922,107.52z"/>
<path style="fill:#FFAA0E;" d="M189.368,84.411l-5.777-5.777l5.777-5.777c3.191-3.191,3.191-8.364,0-11.555
	c-3.191-3.191-8.364-3.191-11.555,0l-5.777,5.777l-5.777-5.777c-3.191-3.191-8.364-3.191-11.555,0
	c-3.191,3.191-3.191,8.364,0,11.555l5.777,5.777l-5.777,5.777c-3.191,3.191-3.191,8.364,0,11.555c3.191,3.191,8.364,3.191,11.555,0
	l5.777-5.777l5.777,5.777c3.191,3.191,8.364,3.191,11.555,0C192.559,92.774,192.559,87.602,189.368,84.411z"/>
<path style="fill:#FFD102;" d="M233.375,201.129h-66.441c-4.512,0-8.17,3.658-8.17,8.17c0,2.256,0.914,4.299,2.393,5.777
	c1.478,1.478,3.521,2.393,5.777,2.393h66.441c4.512,0,8.17-3.658,8.17-8.17C241.546,204.787,237.887,201.129,233.375,201.129z"/>
<path style="fill:#FFAA0E;" d="M142.424,209.299c0-4.512-3.658-8.17-8.17-8.17h-8.17v-8.17c0.001-4.513-3.658-8.17-8.17-8.17
	c-4.512,0-8.17,3.658-8.17,8.17v8.17h-8.17c-4.513,0-8.17,3.658-8.17,8.17c0,2.256,0.914,4.299,2.393,5.777
	c1.478,1.478,3.521,2.393,5.777,2.393h8.17v8.17c0,2.256,0.914,4.299,2.393,5.777c1.478,1.478,3.521,2.393,5.777,2.393
	c4.512,0,8.17-3.657,8.17-8.17v-8.17h8.17C138.766,217.469,142.424,213.811,142.424,209.299z"/>
<path style="fill:#FFD102;" d="M310.872,278.631c-0.001-4.513-3.658-8.17-8.171-8.171c-4.512,0-8.17,3.658-8.17,8.17v66.435
	c0,2.256,0.915,4.3,2.393,5.778c1.478,1.478,3.521,2.393,5.778,2.393c4.512,0,8.17-3.658,8.17-8.17L310.872,278.631L310.872,278.631
	z"/>
<path style="fill:#FFAA0E;" d="M327.213,394.087c-0.001-4.513-3.658-8.17-8.171-8.171h-8.169v-8.169c0-4.512-3.657-8.17-8.171-8.171
	c-4.512,0-8.17,3.658-8.17,8.17v8.17h-8.17c-4.512,0-8.17,3.658-8.17,8.17c0,2.256,0.915,4.3,2.393,5.778
	c1.478,1.478,3.521,2.393,5.778,2.393h8.169v8.169c0,2.257,0.914,4.299,2.393,5.778c1.478,1.478,3.521,2.393,5.778,2.393
	c4.512,0,8.17-3.658,8.17-8.17v-8.17h8.17C323.555,402.257,327.213,398.599,327.213,394.087z"/>
<path style="fill:#FFD102;" d="M331.588,249.739l61.339,61.339c3.191,3.191,8.364,3.191,11.555,0c3.191-3.191,3.191-8.363,0-11.555
	l-61.339-61.339c-3.191-3.191-8.364-3.191-11.555,0C328.397,241.375,328.397,246.549,331.588,249.739z"/>
<path style="fill:#FFAA0E;" d="M450.699,345.742l-5.777-5.777l5.777-5.777c3.191-3.191,3.191-8.363,0-11.555
	c-3.191-3.191-8.364-3.191-11.555,0l-5.777,5.777l-5.777-5.777c-3.191-3.191-8.364-3.191-11.555,0
	c-3.191,3.191-3.191,8.363,0,11.555l5.777,5.777l-5.777,5.777c-3.191,3.191-3.191,8.363,0,11.555c3.191,3.191,8.364,3.191,11.555,0
	l5.777-5.777l5.777,5.777c3.191,3.191,8.364,3.191,11.555,0C453.889,354.106,453.889,348.932,450.699,345.742z"/>
<path style="fill:#FFD102;" d="M446.64,209.3c0-4.512-3.657-8.17-8.171-8.171l-86.746-0.001c-4.512,0-8.17,3.658-8.17,8.17
	c0,2.257,0.914,4.299,2.393,5.778c1.478,1.478,3.521,2.393,5.778,2.393l86.746,0.001C442.982,217.469,446.64,213.811,446.64,209.3z"
	/>
<path style="fill:#FFAA0E;" d="M512,209.299c-0.001-4.513-3.658-8.17-8.171-8.171h-8.169v-8.169c0-4.512-3.657-8.17-8.171-8.171
	c-4.512,0-8.17,3.658-8.17,8.17v8.17h-8.17c-4.512,0-8.17,3.658-8.17,8.17c0,2.256,0.915,4.3,2.393,5.778
	c1.478,1.478,3.521,2.393,5.778,2.393h8.169v8.169c0,2.257,0.914,4.299,2.393,5.778c1.478,1.478,3.521,2.393,5.778,2.393
	c4.512,0,8.17-3.658,8.17-8.17v-8.17h8.17C508.342,217.469,512,213.811,512,209.299z"/>
<g>
</g>
<g>
</g>
<g>
</g>
<g>
</g>
<g>
</g>
<g>
</g>
<g>
</g>
<g>
</g>
<g>
</g>
<g>
</g>
<g>
</g>
<g>
</g>
<g>
</g>
<g>
</g>
<g>
</g>
</svg>
