<?xml version="1.0" encoding="iso-8859-1"?>
<!-- Generator: Adobe Illustrator 19.0.0, SVG Export Plug-In . SVG Version: 6.00 Build 0)  -->
<svg version="1.1" id="Capa_1" xmlns="http://www.w3.org/2000/svg" xmlns:xlink="http://www.w3.org/1999/xlink" x="0px" y="0px"
	 viewBox="0 0 50 50" style="enable-background:new 0 0 50 50;" xml:space="preserve">
<ellipse transform="matrix(0.8118 0.5839 -0.5839 0.8118 19.69 -13.635)" style="fill:#E6E6E6;" cx="31" cy="23.732" rx="9" ry="28.5"/>
<g>
	<path style="fill:#8697CB;" d="M23.887,18.213C15.802,6.307,6.553-1.126,2.614,1.37c-4.199,2.66-0.773,15.595,7.651,28.891
		c1.28,2.021,2.603,3.932,3.939,5.713c1.728-5.067,5.011-11.272,9.489-17.497C23.757,18.387,23.822,18.301,23.887,18.213z"/>
	<path style="fill:#8697CB;" d="M42.179,45c0,0-2.446-5.125-7.7-3.981c-0.325-1.628-0.824-3.417-1.5-5.332
		c-3.674,4.168-7.341,7.44-10.529,9.467c4.48,3.993,8.433,5.782,10.672,4.364c1.237-0.784,1.807-2.464,1.787-4.778
		C38.64,43.005,42.179,45,42.179,45z"/>
</g>
<path style="fill:#556080;" d="M32.318,46.626C36.804,41.969,42.179,45,42.179,45s-3.766-7.907-12-1.899L32.318,46.626z"/>
<path style="fill:#F0C419;" d="M5.826,6.438l-3.843,6.377c1.198,4.087,3.293,8.895,6.14,13.882l4.662-9.278l10.38-0.253
	c-3.294-4.704-6.746-8.652-9.93-11.48L5.826,6.438z"/>
<g>
</g>
<g>
</g>
<g>
</g>
<g>
</g>
<g>
</g>
<g>
</g>
<g>
</g>
<g>
</g>
<g>
</g>
<g>
</g>
<g>
</g>
<g>
</g>
<g>
</g>
<g>
</g>
<g>
</g>
</svg>
