<?xml version="1.0" encoding="iso-8859-1"?>
<!-- Generator: Adobe Illustrator 19.0.0, SVG Export Plug-In . SVG Version: 6.00 Build 0)  -->
<svg version="1.1" id="Layer_1" xmlns="http://www.w3.org/2000/svg" xmlns:xlink="http://www.w3.org/1999/xlink" x="0px" y="0px"
	 viewBox="0 0 512 512" style="enable-background:new 0 0 512 512;" xml:space="preserve">
<path style="fill:#E4B780;" d="M512,433.702c0,18.567-15.191,33.758-33.758,33.758H33.758C15.191,467.461,0,452.269,0,433.702
	V78.298c0-18.567,15.191-33.758,33.758-33.758h444.484c18.567,0,33.758,15.191,33.758,33.758V433.702z"/>
<path style="fill:#991D06;" d="M211.461,433.702c-98.222,0-177.702-79.48-177.702-177.702s79.48-177.702,177.702-177.702
	S389.163,157.778,389.163,256S309.684,433.702,211.461,433.702z"/>
<path style="fill:#F63E31;" d="M283.016,256c0-39.551-32.004-71.555-71.555-71.555S139.905,216.449,139.905,256
	s32.004,71.555,71.555,71.555S283.016,295.551,283.016,256z"/>
<path style="fill:#991D06;" d="M225.526,256c0-7.775-6.291-14.066-14.066-14.066c-7.775,0-14.066,6.291-14.066,14.066
	c0,7.775,6.291,14.066,14.066,14.066C219.235,270.066,225.526,263.775,225.526,256z"/>
<path style="fill:#AD4A38;" d="M427.107,380.7l-15.691-6.219l26.702-67.379c1.893-4.776,3.552-13.47,3.552-18.604V126.122h16.879
	v162.375c0,7.213-2.083,18.117-4.74,24.824L427.107,380.7z"/>
<g>
	<path style="fill:#FFFFFF;" d="M406.679,363.525L388.023,410.6c-3.434,8.667,0.807,18.476,9.473,21.91
		c8.667,3.434,18.476-0.807,21.91-9.473l18.656-47.076L406.679,363.525z"/>
	<rect x="421.978" y="78.297" style="fill:#FFFFFF;" width="56.264" height="56.264"/>
</g>
<g>
	<path style="fill:#AD4A38;" d="M211.461,406.76c-4.662,0-8.44-3.779-8.44-8.44s3.778-8.44,8.44-8.44
		c73.823,0,133.881-60.059,133.881-133.881c0-4.661,3.778-8.44,8.44-8.44s8.44,3.779,8.44,8.44
		C362.22,339.129,294.589,406.76,211.461,406.76z"/>
	<path style="fill:#AD4A38;" d="M104.523,264.44c-4.662,0-8.44-3.779-8.44-8.44c0-63.62,51.758-115.377,115.377-115.377
		c4.662,0,8.44,3.779,8.44,8.44s-3.778,8.44-8.44,8.44c-54.313,0-98.498,44.186-98.498,98.498
		C112.963,260.661,109.184,264.44,104.523,264.44z"/>
	<path style="fill:#AD4A38;" d="M211.461,371.378c-4.662,0-8.44-3.779-8.44-8.44s3.778-8.44,8.44-8.44
		c54.312,0,98.498-44.186,98.498-98.499c0-4.661,3.778-8.44,8.44-8.44s8.44,3.779,8.44,8.44
		C326.837,319.619,275.079,371.378,211.461,371.378z"/>
	<path style="fill:#AD4A38;" d="M123.451,152.554c-2.498,0-4.97-1.104-6.636-3.219c-2.884-3.662-2.253-8.968,1.41-11.851
		c26.787-21.093,59.027-32.243,93.236-32.243c4.662,0,8.44,3.779,8.44,8.44c0,4.661-3.778,8.44-8.44,8.44
		c-30.382,0-59.012,9.898-82.794,28.625C127.119,151.963,125.278,152.554,123.451,152.554z"/>
	<path style="fill:#AD4A38;" d="M69.14,264.44c-4.662,0-8.44-3.779-8.44-8.44c0-34.207,11.149-66.449,32.241-93.236
		c2.883-3.662,8.19-4.292,11.851-1.41c3.663,2.884,4.293,8.19,1.41,11.851C87.478,196.987,77.58,225.618,77.58,256
		C77.58,260.661,73.802,264.44,69.14,264.44z"/>
</g>
<g>
</g>
<g>
</g>
<g>
</g>
<g>
</g>
<g>
</g>
<g>
</g>
<g>
</g>
<g>
</g>
<g>
</g>
<g>
</g>
<g>
</g>
<g>
</g>
<g>
</g>
<g>
</g>
<g>
</g>
</svg>
