<?xml version="1.0" encoding="iso-8859-1"?>
<!-- Generator: Adobe Illustrator 19.0.0, SVG Export Plug-In . SVG Version: 6.00 Build 0)  -->
<svg version="1.1" id="Layer_1" xmlns="http://www.w3.org/2000/svg" xmlns:xlink="http://www.w3.org/1999/xlink" x="0px" y="0px"
	 viewBox="0 0 512 512" style="enable-background:new 0 0 512 512;" xml:space="preserve">
<path style="fill:#FFD102;" d="M210.989,60.801c0-23.962,18.52-49.222,45.011-60.801c26.491,11.578,45.011,36.839,45.011,60.801
	c0,24.858-20.153,45.011-45.011,45.011S210.989,85.659,210.989,60.801L210.989,60.801z"/>
<path style="fill:#459492;" d="M256,85.869c-4.661,0-8.44,3.779-8.44,8.44v45.011h16.879V94.308
	C264.44,89.647,260.661,85.869,256,85.869z"/>
<path style="fill:#9AD6D4;" d="M267.253,128.066h-22.505c-6.189,0-11.253,5.064-11.253,11.253v96.426h45.011v-96.426
	C278.505,133.13,273.442,128.066,267.253,128.066z"/>
<polygon style="fill:#AD4A38;" points="41.587,303.262 41.587,472.615 463.19,472.615 463.19,303.262 256,280.756 "/>
<path style="fill:#991D06;" d="M418.179,224.492H86.598c-24.756,0-45.011,20.255-45.011,45.011v33.758
	c28.373,0,33.83,19.289,53.386,26.711c-0.003,0-0.003,57.709-0.003,57.709c0,9.322,7.557,16.879,16.879,16.879
	s16.879-7.557,16.879-16.879V329.97c19.554-7.423,25.014-26.71,53.384-26.71c35.133,0,35.133,29.573,70.267,29.573
	c35.132,0,35.132-29.573,70.264-29.573c35.137,0,35.137,29.573,70.275,29.573s35.137-29.573,70.273-29.573v-33.758
	C463.19,244.747,442.935,224.492,418.179,224.492z"/>
<path style="fill:#9AD6D4;" d="M11.253,472.615l6.615,23.155C20.419,504.697,30.101,512,39.385,512h433.231
	c9.284,0,18.965-7.303,21.516-16.23l6.616-23.155H11.253z"/>
<path style="fill:#57BAB7;" d="M503.56,481.055H8.44c-4.661,0-8.44-3.779-8.44-8.44s3.779-8.44,8.44-8.44H503.56
	c4.661,0,8.44,3.779,8.44,8.44S508.221,481.055,503.56,481.055z"/>
<g>
</g>
<g>
</g>
<g>
</g>
<g>
</g>
<g>
</g>
<g>
</g>
<g>
</g>
<g>
</g>
<g>
</g>
<g>
</g>
<g>
</g>
<g>
</g>
<g>
</g>
<g>
</g>
<g>
</g>
</svg>
