<?xml version="1.0" encoding="iso-8859-1"?>
<!-- Generator: Adobe Illustrator 19.0.0, SVG Export Plug-In . SVG Version: 6.00 Build 0)  -->
<svg version="1.1" id="Layer_1" xmlns="http://www.w3.org/2000/svg" xmlns:xlink="http://www.w3.org/1999/xlink" x="0px" y="0px"
	 viewBox="0 0 512 512" style="enable-background:new 0 0 512 512;" xml:space="preserve">
<path style="fill:#FE5D26;" d="M218.614,425.538c-37.562,6.474-75.9,19.93-117.339,61.296V512h215.099
	c30.267-8.096,61.324-23.32,94.352-56.269V354.456c-42.773,42.672-82.243,55.613-120.967,61.847L218.614,425.538z"/>
<path style="fill:#FE841A;" d="M410.725,512v-56.269C377.697,488.68,346.64,503.904,316.373,512H410.725z"/>
<path style="fill:#FE5D26;" d="M101.275,126.74v56.269c32.966-32.908,63.968-48.152,94.18-56.269
	C195.455,126.74,101.275,126.74,101.275,126.74z"/>
<path style="fill:#FE841A;" d="M195.455,126.74c-30.211,8.118-61.214,23.362-94.18,56.269v101.275
	c41.439-41.366,79.776-54.822,117.339-61.296l71.144-9.235c38.724-6.233,78.194-19.176,120.967-61.847V126.74H195.455z"/>
<path style="fill:#FE5D26;" d="M218.614,222.989c-37.562,6.474-75.9,19.93-117.339,61.296V385.56
	c41.439-41.366,79.776-54.822,117.339-61.296l71.144-9.235c38.724-6.233,78.194-19.176,120.967-61.847V151.906
	c-42.773,42.672-82.243,55.613-120.967,61.847L218.614,222.989z"/>
<path style="fill:#FE841A;" d="M218.614,324.264c-37.562,6.474-75.9,19.93-117.339,61.296v101.275
	c41.439-41.366,79.776-54.822,117.339-61.296l71.144-9.235c38.724-6.233,78.194-19.176,120.967-61.847V253.181
	c-42.773,42.672-82.243,55.613-120.967,61.847L218.614,324.264z"/>
<rect x="222.242" y="115.487" style="fill:#FFE368;" width="67.516" height="396.513"/>
<path style="fill:#FFD102;" d="M331.061,64.557c4.926-12.184,2.451-26.663-7.428-36.542c-9.879-9.879-24.358-12.354-36.542-7.428
	C281.959,8.488,269.971,0,256,0c-13.971,0-25.959,8.488-31.091,20.587c-12.184-4.926-26.663-2.451-36.542,7.428
	s-12.354,24.358-7.428,36.542c-12.099,5.132-20.587,17.12-20.587,31.091s8.488,25.959,20.587,31.091h150.123
	c12.1-5.132,20.587-17.12,20.587-31.091S343.16,69.689,331.061,64.557z"/>
<g>
</g>
<g>
</g>
<g>
</g>
<g>
</g>
<g>
</g>
<g>
</g>
<g>
</g>
<g>
</g>
<g>
</g>
<g>
</g>
<g>
</g>
<g>
</g>
<g>
</g>
<g>
</g>
<g>
</g>
</svg>
