<?xml version="1.0" encoding="iso-8859-1"?>
<!-- Generator: Adobe Illustrator 19.0.0, SVG Export Plug-In . SVG Version: 6.00 Build 0)  -->
<svg version="1.1" id="Layer_1" xmlns="http://www.w3.org/2000/svg" xmlns:xlink="http://www.w3.org/1999/xlink" x="0px" y="0px"
	 viewBox="0 0 512 512" style="enable-background:new 0 0 512 512;" xml:space="preserve">
<polygon style="fill:#9AD6D4;" points="495.121,145.34 495.121,512 16.879,512 16.879,145.34 258.287,100.33 "/>
<rect x="50.637" y="122.846" style="fill:#FFFFFF;" width="410.725" height="355.396"/>
<path style="fill:#FFD102;" d="M220.026,242.507c0-20.367,15.743-41.839,38.259-51.68c22.517,9.842,38.259,31.313,38.259,51.68
	c0,21.13-17.129,38.259-38.259,38.259S220.026,263.637,220.026,242.507L220.026,242.507z"/>
<path style="fill:#459492;" d="M258.285,260.032c-4.662,0-8.44,3.779-8.44,8.44v45.011h16.879v-45.011
	C266.725,263.809,262.947,260.032,258.285,260.032z"/>
<path style="fill:#AD4A38;" d="M360.088,376.494v56.264H151.912v-56.264c0,0,37.697-47.262,104.088-47.262
	S360.088,376.494,360.088,376.494z"/>
<path style="fill:#991D06;" d="M360.088,331.844v44.651c-26.028,0-26.028-21.943-52.044-21.943
	c-26.028,0-26.028,21.943-52.044,21.943s-26.016-21.943-52.044-21.943c-26.016,0-26.016,21.943-52.044,21.943v-44.651
	c0-15.664,12.806-28.492,28.469-28.492h151.237C347.282,303.352,360.088,316.18,360.088,331.844z"/>
<path style="fill:#E60048;" d="M495.121,67.516v77.824H16.879V67.516c0-18.567,15.191-33.758,33.758-33.758h410.725
	C479.93,33.758,495.121,48.949,495.121,67.516z"/>
<g>
	<path style="fill:#FFD3C7;" d="M137.846,0c-9.322,0-16.879,7.557-16.879,16.879v66.495c0,9.322,7.557,16.879,16.879,16.879
		s16.879-7.557,16.879-16.879V16.879C154.725,7.557,147.168,0,137.846,0z"/>
	<path style="fill:#FFD3C7;" d="M374.154,0c-9.322,0-16.879,7.557-16.879,16.879l0.001,66.495c0,9.322,7.557,16.879,16.879,16.879
		s16.879-7.557,16.879-16.879V16.879C391.033,7.557,383.476,0,374.154,0z"/>
</g>
<g>
</g>
<g>
</g>
<g>
</g>
<g>
</g>
<g>
</g>
<g>
</g>
<g>
</g>
<g>
</g>
<g>
</g>
<g>
</g>
<g>
</g>
<g>
</g>
<g>
</g>
<g>
</g>
<g>
</g>
</svg>
