<?xml version="1.0" encoding="iso-8859-1"?>
<!-- Generator: Adobe Illustrator 19.0.0, SVG Export Plug-In . SVG Version: 6.00 Build 0)  -->
<svg version="1.1" id="Layer_1" xmlns="http://www.w3.org/2000/svg" xmlns:xlink="http://www.w3.org/1999/xlink" x="0px" y="0px"
	 viewBox="0 0 512 512" style="enable-background:new 0 0 512 512;" xml:space="preserve">
<path style="fill:#E60048;" d="M247.698,424.545v79.152c0,4.585,3.716,8.303,8.303,8.303s8.303-3.717,8.303-8.303v-79.152H247.698z"
	/>
<path style="fill:#FFD102;" d="M211.719,59.815c0-23.573,18.219-48.424,44.281-59.815c26.062,11.39,44.281,36.242,44.281,59.815
	c0,24.455-19.826,44.281-44.281,44.281C231.545,104.096,211.719,84.27,211.719,59.815L211.719,59.815z"/>
<path style="fill:#459492;" d="M256.001,84.476c-4.585,0-8.303,3.717-8.303,8.303v44.281h16.605V92.779
	C264.303,88.194,260.586,84.476,256.001,84.476z"/>
<path style="fill:#FF709D;" d="M318.962,381.89c-9.133,0-16.605-7.472-16.605-16.605V125.99h-92.711
	c0,23.562-19.278,42.841-42.841,42.841v54.735h42.841v141.719c0,9.133-7.472,16.605-16.605,16.605h-26.235v53.725h178.392V381.89
	H318.962z"/>
<path style="fill:#FF3776;" d="M269.132,394.102h-4.829V159.2c0-4.016-2.875-7.457-6.827-8.17c-3.953-0.716-7.849,1.503-9.254,5.265
	c-2.655,7.109-6.579,14.095-11.999,21.355c-2.743,3.675-1.987,8.877,1.687,11.62c2.967,2.214,6.927,2.149,9.787,0.11v204.721h-4.829
	c-4.586,0-8.303,3.717-8.303,8.303s3.716,8.303,8.303,8.303h26.264c4.586,0,8.303-3.717,8.303-8.303
	S273.719,394.102,269.132,394.102z"/>
<g>
</g>
<g>
</g>
<g>
</g>
<g>
</g>
<g>
</g>
<g>
</g>
<g>
</g>
<g>
</g>
<g>
</g>
<g>
</g>
<g>
</g>
<g>
</g>
<g>
</g>
<g>
</g>
<g>
</g>
</svg>
