<?xml version="1.0" encoding="iso-8859-1"?>
<!-- Generator: Adobe Illustrator 19.0.0, SVG Export Plug-In . SVG Version: 6.00 Build 0)  -->
<svg version="1.1" id="Layer_1" xmlns="http://www.w3.org/2000/svg" xmlns:xlink="http://www.w3.org/1999/xlink" x="0px" y="0px"
	 viewBox="0 0 512 512" style="enable-background:new 0 0 512 512;" xml:space="preserve">
<g>
	<rect x="155.627" y="330.572" style="fill:#FFE368;" width="16.879" height="163.48"/>
	<rect x="339.497" y="330.572" style="fill:#FFE368;" width="16.879" height="163.48"/>
	<path style="fill:#FFE368;" d="M164.066,482.792c-27.423,0-52.123,11.243-69.433,29.208h138.865
		C216.189,494.035,191.489,482.792,164.066,482.792z"/>
</g>
<path style="fill:#FFAA0E;" d="M233.498,76.631v195.753c0,38.349-31.091,69.441-69.429,69.441
	c-38.349,0-69.441-31.091-69.441-69.441V76.631l69.441-33.758L233.498,76.631z"/>
<g>
	<rect x="94.625" style="fill:#FFE368;" width="138.87" height="76.631"/>
	<circle style="fill:#FFE368;" cx="136.835" cy="118.829" r="8.44"/>
	<circle style="fill:#FFE368;" cx="136.835" cy="152.587" r="8.44"/>
	<path style="fill:#FFE368;" d="M347.942,482.792c-27.423,0-52.123,11.243-69.432,29.208h138.865
		C400.064,494.035,375.365,482.792,347.942,482.792z"/>
</g>
<path style="fill:#FFAA0E;" d="M417.368,76.631v195.753c0,38.349-31.08,69.441-69.429,69.441c-38.338,0-69.429-31.091-69.429-69.441
	V76.631l69.429-22.505L417.368,76.631z"/>
<g>
	<rect x="278.507" style="fill:#FFE368;" width="138.859" height="76.631"/>
	<circle style="fill:#FFE368;" cx="320.704" cy="208.851" r="8.44"/>
</g>
<g>
	<path style="fill:#FFFFFF;" d="M164.066,316.504c-4.661,0-8.44-3.779-8.44-8.44s3.779-8.44,8.44-8.44
		c15.017,0,27.235-12.217,27.235-27.235v-11.253c0-4.661,3.779-8.44,8.44-8.44s8.44,3.779,8.44,8.44v11.253
		C208.179,296.714,188.39,316.504,164.066,316.504z"/>
	<path style="fill:#FFFFFF;" d="M199.74,235.818c-4.661,0-8.44-3.779-8.44-8.44V110.394c0-4.661,3.779-8.44,8.44-8.44
		s8.44,3.779,8.44,8.44v116.984C208.179,232.04,204.402,235.818,199.74,235.818z"/>
	<path style="fill:#FFFFFF;" d="M347.942,316.504c-4.661,0-8.44-3.779-8.44-8.44s3.779-8.44,8.44-8.44
		c15.017,0,27.235-12.217,27.235-27.235v-11.253c0-4.661,3.779-8.44,8.44-8.44s8.44,3.779,8.44,8.44v11.253
		C392.056,296.714,372.266,316.504,347.942,316.504z"/>
	<path style="fill:#FFFFFF;" d="M383.616,235.818c-4.661,0-8.44-3.779-8.44-8.44V110.395c0-4.661,3.779-8.44,8.44-8.44
		s8.44,3.779,8.44,8.44v116.984C392.056,232.04,388.277,235.818,383.616,235.818z"/>
</g>
<g>
</g>
<g>
</g>
<g>
</g>
<g>
</g>
<g>
</g>
<g>
</g>
<g>
</g>
<g>
</g>
<g>
</g>
<g>
</g>
<g>
</g>
<g>
</g>
<g>
</g>
<g>
</g>
<g>
</g>
</svg>
