<?xml version="1.0" encoding="iso-8859-1"?>
<!-- Generator: Adobe Illustrator 19.0.0, SVG Export Plug-In . SVG Version: 6.00 Build 0)  -->
<svg version="1.1" id="Layer_1" xmlns="http://www.w3.org/2000/svg" xmlns:xlink="http://www.w3.org/1999/xlink" x="0px" y="0px"
	 viewBox="0 0 512 512" style="enable-background:new 0 0 512 512;" xml:space="preserve">
<path style="fill:#FFD3C7;" d="M414.324,179.987c-9.365-10.287-25.001-12.034-38.862-5.546
	c-4.835-38.201-28.221-70.603-60.832-87.951H205.616c-32.612,17.348-55.997,49.751-60.832,87.951
	c-13.862-6.487-29.499-4.74-38.862,5.546c-11.998,13.18-9.065,35.388,6.55,49.602c9.76,8.884,22.934,12.199,33.794,10.476
	c10.925,52.868,57.749,92.613,113.858,92.613s102.932-39.746,113.856-92.617c10.861,1.726,24.036-1.589,33.795-10.473
	C423.389,215.374,426.322,193.167,414.324,179.987z"/>
<g>
	<path style="fill:#991D06;" d="M209.791,191.523c-4.067,0-7.463-2.878-8.262-6.708h-9.41c-4.662,0-8.44-3.778-8.44-8.44
		s3.778-8.44,8.44-8.44h17.671c4.662,0,8.44,3.778,8.44,8.44v6.708C218.23,187.745,214.451,191.523,209.791,191.523z"/>
	<path style="fill:#991D06;" d="M310.453,191.523c-4.662,0-8.44-3.778-8.44-8.44v-6.708c0-4.662,3.778-8.44,8.44-8.44h17.672
		c4.662,0,8.44,3.778,8.44,8.44s-3.778,8.44-8.44,8.44h-9.411C317.915,188.646,314.52,191.523,310.453,191.523z"/>
</g>
<path style="fill:#FF709D;" d="M260.122,284.054c-38.291,0-71.121-28.58-76.363-66.48c-0.638-4.617,2.587-8.877,7.204-9.516
	c4.6-0.63,8.877,2.587,9.516,7.204c4.094,29.596,29.734,51.913,59.643,51.913s55.549-22.318,59.643-51.913
	c0.638-4.618,4.91-7.835,9.516-7.204c4.618,0.639,7.843,4.899,7.204,9.516C331.243,255.473,298.413,284.054,260.122,284.054z"/>
<circle style="fill:#F63E31;" cx="260.119" cy="206.961" r="22.731"/>
<g>
	<path style="fill:#FF3776;" d="M260.122,0c-30.103,0-54.506,24.404-54.506,54.506v31.983h109.013V54.506
		C314.628,24.404,290.225,0,260.122,0z"/>
	<path style="fill:#FF3776;" d="M396.017,420.556H115.983c-26.917,24.472-47.395,55.9-58.594,91.444h397.222
		C443.412,476.456,422.933,445.028,396.017,420.556z"/>
</g>
<path style="fill:#FF709D;" d="M366.904,398.406H145.096c-10.356,6.531-20.096,13.95-29.114,22.15
	c1.7,4.676,3.817,9.213,6.34,13.583c13.917,24.108,38.16,39.378,64.731,42.239c15.765,21.581,41.111,34.94,68.947,34.94
	c27.836,0,53.182-13.359,68.947-34.94c26.571-2.862,50.814-18.132,64.731-42.239c2.523-4.371,4.639-8.907,6.34-13.583
	C387,412.357,377.26,404.937,366.904,398.406z"/>
<path style="fill:#FFE368;" d="M206.909,441.99c6.765,20.65,26.181,35.57,49.091,35.57c22.911,0,42.327-14.92,49.091-35.57
	c21.265,4.466,43.895-4.888,55.35-24.729c3.461-5.994,5.584-12.395,6.461-18.854c-32.109-20.248-70.138-31.965-110.904-31.965
	s-78.794,11.716-110.904,31.965c0.878,6.459,3.001,12.86,6.461,18.854C163.014,437.102,185.643,446.456,206.909,441.99z"/>
<path style="fill:#E60048;" d="M344.6,94.928H175.643c-4.662,0-8.44-3.778-8.44-8.44s3.778-8.44,8.44-8.44H344.6
	c4.662,0,8.44,3.778,8.44,8.44S349.262,94.928,344.6,94.928z"/>
<g>
</g>
<g>
</g>
<g>
</g>
<g>
</g>
<g>
</g>
<g>
</g>
<g>
</g>
<g>
</g>
<g>
</g>
<g>
</g>
<g>
</g>
<g>
</g>
<g>
</g>
<g>
</g>
<g>
</g>
</svg>
