<?xml version="1.0" encoding="iso-8859-1"?>
<!-- Generator: Adobe Illustrator 19.0.0, SVG Export Plug-In . SVG Version: 6.00 Build 0)  -->
<svg version="1.1" id="Layer_1" xmlns="http://www.w3.org/2000/svg" xmlns:xlink="http://www.w3.org/1999/xlink" x="0px" y="0px"
	 viewBox="0 0 512 512" style="enable-background:new 0 0 512 512;" xml:space="preserve">
<g>
	<polygon style="fill:#C8815C;" points="100.241,374.906 133.999,512 377.999,512 411.757,374.906 	"/>
	<polygon style="fill:#C8815C;" points="100.241,374.906 133.999,512 377.999,512 411.757,374.906 255.999,363.653 	"/>
</g>
<g>
	<path style="fill:#E4B780;" d="M342.628,363.356l-16.791,113.653c-0.68,4.611,2.506,8.901,7.116,9.583
		c0.417,0.062,0.833,0.092,1.243,0.092c4.114,0,7.718-3.015,8.338-7.207l16.791-113.653L342.628,363.356z"/>
	<path style="fill:#E4B780;" d="M279.229,364.175l-5.597,113.653c-0.228,4.655,3.359,8.615,8.014,8.844
		c0.142,0.007,0.282,0.01,0.422,0.01c4.471,0,8.2-3.511,8.423-8.024l5.597-113.653L279.229,364.175z"/>
	<path style="fill:#E4B780;" d="M232.769,364.175l-16.859,0.829l5.597,113.653c0.223,4.515,3.953,8.024,8.423,8.024
		c0.14,0,0.28-0.003,0.422-0.01c4.655-0.23,8.243-4.189,8.014-8.844L232.769,364.175z"/>
	<path style="fill:#E4B780;" d="M186.161,477.008L169.37,363.356l-16.699,2.467l16.791,113.653c0.62,4.193,4.223,7.207,8.338,7.207
		c0.411,0,0.826-0.03,1.243-0.092C183.655,485.909,186.841,481.62,186.161,477.008z"/>
</g>
<path style="fill:#FFD102;" d="M210.988,60.801c0-23.962,18.52-49.222,45.011-60.801c26.491,11.578,45.011,36.839,45.011,60.801
	c0,24.858-20.153,45.011-45.011,45.011S210.988,85.659,210.988,60.801L210.988,60.801z"/>
<path style="fill:#459492;" d="M255.999,85.869c-4.661,0-8.44,3.779-8.44,8.44v45.011h16.879V94.308
	C264.438,89.647,260.66,85.869,255.999,85.869z"/>
<path style="fill:#9AD6D4;" d="M267.252,128.066h-22.505c-6.189,0-11.253,5.064-11.253,11.253v96.426h45.011v-96.426
	C278.504,133.13,273.441,128.066,267.252,128.066z"/>
<path style="fill:#AD4A38;" d="M388.826,300.513H123.183c-26.876,0-48.669,21.789-48.669,48.666
	c0,14.209,11.518,25.728,25.728,25.728h311.517c14.209,0,25.728-11.518,25.728-25.728
	C437.484,322.301,415.702,300.513,388.826,300.513z"/>
<path style="fill:#991D06;" d="M348.579,224.492H163.429c-26.876,0-48.664,21.786-48.664,48.664c0,10.143,3.107,19.56,8.416,27.357
	h265.644c5.309-7.797,8.416-17.213,8.416-27.357C397.241,246.279,375.455,224.492,348.579,224.492z"/>
<g>
</g>
<g>
</g>
<g>
</g>
<g>
</g>
<g>
</g>
<g>
</g>
<g>
</g>
<g>
</g>
<g>
</g>
<g>
</g>
<g>
</g>
<g>
</g>
<g>
</g>
<g>
</g>
<g>
</g>
</svg>
