<?xml version="1.0" encoding="iso-8859-1"?>
<!-- Generator: Adobe Illustrator 19.0.0, SVG Export Plug-In . SVG Version: 6.00 Build 0)  -->
<svg version="1.1" id="Layer_1" xmlns="http://www.w3.org/2000/svg" xmlns:xlink="http://www.w3.org/1999/xlink" x="0px" y="0px"
	 viewBox="0 0 512 512" style="enable-background:new 0 0 512 512;" xml:space="preserve">
<g>
	<path style="fill:#FF709D;" d="M32.681,220.596v201.532c0,4.513,3.658,8.17,8.17,8.17s8.17-3.657,8.17-8.17V220.596H32.681z"/>
	<circle style="fill:#FF709D;" cx="264.17" cy="256" r="166.128"/>
</g>
<g>
	<circle style="fill:#F63E31;" cx="264.17" cy="256" r="122.553"/>
	<path style="fill:#F63E31;" d="M73.532,81.702c-4.512,0-8.17,3.657-8.17,8.17v68.085h-16.34V89.872c0-4.513-3.658-8.17-8.17-8.17
		s-8.17,3.657-8.17,8.17v68.085H16.34V89.872c0-4.513-3.658-8.17-8.17-8.17S0,85.359,0,89.872v98.043
		c0,22.526,18.325,40.851,40.851,40.851s40.851-18.325,40.851-40.851V89.872C81.702,85.359,78.044,81.702,73.532,81.702z"/>
</g>
<path style="fill:#FF709D;" d="M495.66,231.489v190.638c0,4.513,3.657,8.17,8.17,8.17s8.17-3.657,8.17-8.17V280.511L495.66,231.489z
	"/>
<path style="fill:#F63E31;" d="M512,280.511h-49.021V122.553c0-22.526,18.325-40.851,40.851-40.851H512V280.511z"/>
<g>
</g>
<g>
</g>
<g>
</g>
<g>
</g>
<g>
</g>
<g>
</g>
<g>
</g>
<g>
</g>
<g>
</g>
<g>
</g>
<g>
</g>
<g>
</g>
<g>
</g>
<g>
</g>
<g>
</g>
</svg>
