<?xml version="1.0" encoding="iso-8859-1"?>
<!-- Generator: Adobe Illustrator 19.0.0, SVG Export Plug-In . SVG Version: 6.00 Build 0)  -->
<svg version="1.1" id="Capa_1" xmlns="http://www.w3.org/2000/svg" xmlns:xlink="http://www.w3.org/1999/xlink" x="0px" y="0px"
	 viewBox="0 0 512 512" style="enable-background:new 0 0 512 512;" xml:space="preserve">
<path style="fill:#5C5C5C;" d="M111.339,195.2v38.268c0,14.478-11.778,26.256-26.256,26.256c-14.477,0-26.256-11.778-26.256-26.256
	V195.2h-30v38.268c0,31.02,25.236,56.256,56.256,56.256s56.256-25.236,56.256-56.256V195.2H111.339z"/>
<path d="M453.172,195.2v38.268c0,14.478-11.778,26.256-26.256,26.256s-26.256-11.778-26.256-26.256V195.2h-30v38.268
	c0,31.02,25.236,56.256,56.256,56.256s56.255-25.236,56.255-56.256V195.2H453.172z"/>
<path style="fill:#FC0023;" d="M364.52,64.861l-37.321-12.44c-45.914-15.306-96.486-15.306-142.398,0l-37.321,12.44H28.827v141.23
	h454.346V64.861H364.52z"/>
<path style="fill:#D1001D;" d="M364.52,64.861l-37.321-12.44c-23.035-7.679-47.243-11.503-71.446-11.477v165.147h227.42V64.861
	H364.52z"/>
<rect x="28.826" y="95.309" style="fill:#5C5C5C;" width="454.35" height="78.59"/>
<rect y="386.909" style="fill:#FC0023;" width="222" height="84.15"/>
<rect x="290" y="387.909" style="fill:#D1001D;" width="222" height="83.15"/>
<path style="fill:#5C5C5C;" d="M164.333,471.056h-30v-83.542l42.852-64.278c17.607-26.412,47.071-42.181,78.815-42.181v30
	c-21.69,0-41.822,10.775-53.853,28.821l-37.814,56.72L164.333,471.056L164.333,471.056z"/>
<path d="M377.667,471.056h-30v-74.458l-37.814-56.72c-12.031-18.047-32.163-28.821-53.853-28.821v-30
	c31.744,0,61.207,15.769,78.814,42.181l42.852,64.278v83.54H377.667z"/>
<rect x="255.75" y="95.309" width="227.42" height="78.59"/>
<rect x="214.86" y="134.599" style="fill:#FC0023;" width="82.28" height="191.84"/>
<rect x="255.75" y="134.599" style="fill:#D1001D;" width="41.38" height="191.84"/>
<g>
</g>
<g>
</g>
<g>
</g>
<g>
</g>
<g>
</g>
<g>
</g>
<g>
</g>
<g>
</g>
<g>
</g>
<g>
</g>
<g>
</g>
<g>
</g>
<g>
</g>
<g>
</g>
<g>
</g>
</svg>
