<?xml version="1.0" encoding="iso-8859-1"?>
<!-- Generator: Adobe Illustrator 19.0.0, SVG Export Plug-In . SVG Version: 6.00 Build 0)  -->
<svg version="1.1" id="Layer_1" xmlns="http://www.w3.org/2000/svg" xmlns:xlink="http://www.w3.org/1999/xlink" x="0px" y="0px"
	 viewBox="0 0 512 512" style="enable-background:new 0 0 512 512;" xml:space="preserve">
<path style="fill:#F24141;" d="M443.582,398.763c-20.914,20.914-44.809,37.025-70.321,48.345
	c14.928-33.61,21.529-70.031,19.804-106.115c-0.278-5.781-0.772-11.549-1.472-17.306c-5.865-47.886-26.538-94.324-62.054-131.856
	c-1.509-1.605-3.041-3.186-4.61-4.755c-1.581-1.581-3.174-3.126-4.779-4.622c-33.573-31.751-74.243-51.651-116.71-59.689
	c-5.032-0.953-10.089-1.738-15.17-2.353c-5.744-0.712-11.513-1.195-17.294-1.472c-36.071-1.726-72.481,4.876-106.09,19.792
	c11.332-25.5,27.431-49.407,48.345-70.309C161.696,19.959,226.164-2.753,289.63,0.276c5.781,0.278,11.549,0.772,17.306,1.472
	c47.91,5.865,94.348,26.55,131.88,62.042c1.605,1.521,3.198,3.065,4.767,4.634c1.569,1.569,3.114,3.15,4.61,4.755
	c31.763,33.585,51.676,74.291,59.713,116.795c0.941,4.996,1.726,10.016,2.341,15.061c0.712,5.744,1.207,11.513,1.484,17.294
	C514.772,285.806,492.06,350.286,443.582,398.763z"/>
<path style="fill:#D83535;" d="M443.578,398.761c-20.914,20.914-44.809,37.025-70.321,48.345
	c38.075-85.744,21.976-189.722-48.333-260.031c-34.454-34.442-76.982-55.887-121.489-64.311
	c1.931-0.869,164.427-72.819,304.465,67.207C521.779,263.309,500.334,342.005,443.578,398.761z"/>
<g>
	<path style="fill:#F2D546;" d="M448.192,73.179L329.539,191.832c-1.509-1.605-3.041-3.186-4.61-4.755
		c-1.581-1.581-3.174-3.126-4.779-4.622L438.816,63.79c1.605,1.521,3.198,3.065,4.767,4.634
		C445.151,69.993,446.696,71.574,448.192,73.179z"/>
	<path style="fill:#F2D546;" d="M511.731,222.328L393.065,340.993c-0.278-5.781-0.772-11.549-1.472-17.306l118.653-118.653
		C510.959,210.78,511.453,216.548,511.731,222.328z"/>
	<path style="fill:#F2D546;" d="M306.936,1.748L188.27,120.413c-5.744-0.712-11.513-1.195-17.294-1.472L289.63,0.276
		C295.411,0.553,301.179,1.048,306.936,1.748z"/>
</g>
<path style="fill:#B3B3B3;" d="M0,511.992l67.391-361.319c0.611-3.275,3.759-5.437,7.038-4.826c3.275,0.611,5.435,3.762,4.825,7.038
	L15.091,496.901l344.016-64.162c3.278-0.614,6.427,1.548,7.038,4.825c0.611,3.276-1.55,6.427-4.826,7.038L0,511.992z"/>
<g>
</g>
<g>
</g>
<g>
</g>
<g>
</g>
<g>
</g>
<g>
</g>
<g>
</g>
<g>
</g>
<g>
</g>
<g>
</g>
<g>
</g>
<g>
</g>
<g>
</g>
<g>
</g>
<g>
</g>
</svg>
