<?xml version="1.0" encoding="iso-8859-1"?>
<!-- Generator: Adobe Illustrator 19.0.0, SVG Export Plug-In . SVG Version: 6.00 Build 0)  -->
<svg version="1.1" id="Layer_1" xmlns="http://www.w3.org/2000/svg" xmlns:xlink="http://www.w3.org/1999/xlink" x="0px" y="0px"
	 viewBox="0 0 512.001 512.001" style="enable-background:new 0 0 512.001 512.001;" xml:space="preserve">
<path style="fill:#57BAB7;" d="M0,434.034c0,25.6,20.946,46.546,46.546,46.546h418.909c25.6,0,46.546-20.946,46.546-46.546
	l-256-22.505L0,434.034z"/>
<rect x="375.909" y="49.426" style="fill:#9AD6D4;" width="89.549" height="56.264"/>
<path style="fill:#459492;" d="M465.454,83.184H353.398l-20.56-37.008c-4.509-8.115-15.793-14.755-25.077-14.755H204.236
	c-9.284,0-20.568,6.64-25.077,14.755L158.6,83.184H46.546C20.946,83.184,0,104.13,0,129.73v304.304h512V129.73
	C512,104.13,491.054,83.184,465.454,83.184z"/>
<g>
	<polygon style="fill:#57BAB7;" points="304.78,65.18 207.22,65.18 197.219,83.185 314.781,83.184 	"/>
	<path style="fill:#57BAB7;" d="M140.401,246.102H99.775c-15.537,0-28.132,12.595-28.132,28.132
		c0,15.537,12.595,28.132,28.132,28.132h40.625v-56.264H140.401z"/>
</g>
<path style="fill:#FFE368;" d="M465.455,116.942h-43.477c-6.931,0-12.786,5.856-12.786,12.788v30.688
	c0,6.932,5.856,12.788,12.786,12.788h43.477c6.931,0,12.787-5.856,12.787-12.788V129.73
	C478.242,122.8,472.386,116.942,465.455,116.942z"/>
<g>
	<path style="fill:#9AD6D4;" d="M124.842,57.866H91.084c-4.662,0-8.44-3.779-8.44-8.44s3.778-8.44,8.44-8.44h33.758
		c4.662,0,8.44,3.779,8.44,8.44S129.505,57.866,124.842,57.866z"/>
	<circle style="fill:#9AD6D4;" cx="256" cy="269.178" r="131.095"/>
</g>
<circle style="fill:#FFFFFF;" cx="256" cy="269.178" r="97.336"/>
<path style="fill:#FF709D;" d="M256,306.369c-11.828,0-22.436-7.488-26.398-18.631c-1.562-4.392,0.733-9.217,5.125-10.779
	c4.394-1.56,9.218,0.733,10.779,5.126c1.574,4.43,5.792,7.405,10.494,7.405c4.703,0,8.92-2.976,10.494-7.405
	c1.561-4.392,6.386-6.685,10.779-5.126c4.391,1.562,6.685,6.387,5.125,10.779C278.436,298.881,267.828,306.369,256,306.369z"/>
<g>
	<path style="fill:#459492;" d="M226.301,254.498c-3.675,0-6.801-2.348-7.959-5.626h-11.733c-4.662,0-8.44-3.779-8.44-8.44
		s3.778-8.44,8.44-8.44h19.692c4.662,0,8.44,3.779,8.44,8.44v5.626C234.74,250.72,230.963,254.498,226.301,254.498z"/>
	<path style="fill:#459492;" d="M285.699,254.498c-4.662,0-8.44-3.779-8.44-8.44v-5.626c0-4.661,3.778-8.44,8.44-8.44h19.692
		c4.662,0,8.44,3.779,8.44,8.44s-3.778,8.44-8.44,8.44h-11.733C292.501,252.15,289.373,254.498,285.699,254.498z"/>
</g>
<g>
</g>
<g>
</g>
<g>
</g>
<g>
</g>
<g>
</g>
<g>
</g>
<g>
</g>
<g>
</g>
<g>
</g>
<g>
</g>
<g>
</g>
<g>
</g>
<g>
</g>
<g>
</g>
<g>
</g>
</svg>
