<?xml version="1.0" encoding="iso-8859-1"?>
<!-- Generator: Adobe Illustrator 19.0.0, SVG Export Plug-In . SVG Version: 6.00 Build 0)  -->
<svg version="1.1" id="Layer_1" xmlns="http://www.w3.org/2000/svg" xmlns:xlink="http://www.w3.org/1999/xlink" x="0px" y="0px"
	 viewBox="0 0 512 512" style="enable-background:new 0 0 512 512;" xml:space="preserve">
<rect x="332.01" y="36.342" transform="matrix(-0.2728 -0.9621 0.9621 -0.2728 265.1337 549.9404)" style="fill:#FF709D;" width="16.801" height="276.848"/>
<path style="fill:#FF3776;" d="M198.846,80.284v330.12c-16.787-16.646-44.564-27.538-76.015-27.538
	c-51.26,0-92.815,28.907-92.815,64.567S71.57,512,122.831,512c51.26,0,92.815-28.907,92.815-64.567V165.336l249.538-70.756v236.269
	c-16.787-16.646-44.564-27.538-76.015-27.538c-51.261,0-92.815,28.908-92.815,64.567s41.555,64.567,92.815,64.567
	c51.26,0,92.814-28.907,92.815-64.566V0L198.846,80.284z"/>
<g>
</g>
<g>
</g>
<g>
</g>
<g>
</g>
<g>
</g>
<g>
</g>
<g>
</g>
<g>
</g>
<g>
</g>
<g>
</g>
<g>
</g>
<g>
</g>
<g>
</g>
<g>
</g>
<g>
</g>
</svg>
