<?xml version="1.0" encoding="iso-8859-1"?>
<!-- Generator: Adobe Illustrator 19.0.0, SVG Export Plug-In . SVG Version: 6.00 Build 0)  -->
<svg version="1.1" id="Layer_1" xmlns="http://www.w3.org/2000/svg" xmlns:xlink="http://www.w3.org/1999/xlink" x="0px" y="0px"
	 viewBox="0 0 512 512" style="enable-background:new 0 0 512 512;" xml:space="preserve">
<path style="fill:#FFD102;" d="M289.758,0c-27.921,0-50.637,22.716-50.637,50.637v78.769L256,151.912l16.879-22.505V50.637
	c0-9.307,7.572-16.879,16.879-16.879h84.396V0H289.758z"/>
<polygon style="fill:#FFD3C7;" points="129.407,129.407 146.286,512 365.714,512 382.593,129.407 272.879,129.407 257.125,151.912 
	239.121,129.407 "/>
<rect x="239.121" y="129.407" style="fill:#FFAA0E;" width="33.758" height="258.813"/>
<g>
	<path style="fill:#FE841A;" d="M211.086,212.676c-22.455,0-22.455-15.754-44.91-15.754l12.412,281.32h60.533V201.146
		C230.949,205.813,225.909,212.676,211.086,212.676z"/>
	<path style="fill:#FE841A;" d="M300.909,212.676c-14.82,0-19.862-6.859-28.029-11.525v277.091h60.533l12.412-281.319
		C323.367,196.923,323.366,212.676,300.909,212.676z"/>
</g>
<g>
	<path style="fill:#FE5D26;" d="M255.994,196.922c-7.632,0-12.666,1.822-16.873,4.223v277.097h33.758V201.151
		C268.669,198.746,263.632,196.922,255.994,196.922z"/>
	<circle style="fill:#FE5D26;" cx="306.311" cy="334.769" r="8.44"/>
	<circle style="fill:#FE5D26;" cx="207.422" cy="413.538" r="8.44"/>
</g>
<g>
</g>
<g>
</g>
<g>
</g>
<g>
</g>
<g>
</g>
<g>
</g>
<g>
</g>
<g>
</g>
<g>
</g>
<g>
</g>
<g>
</g>
<g>
</g>
<g>
</g>
<g>
</g>
<g>
</g>
</svg>
